<?xml version="1.0" encoding="utf-8"?>
<!-- Generator: Adobe Illustrator 23.0.3, SVG Export Plug-In . SVG Version: 6.00 Build 0)  -->
<svg version="1.1" id="Layer_1" xmlns="http://www.w3.org/2000/svg" xmlns:xlink="http://www.w3.org/1999/xlink" x="0px" y="0px"
	 viewBox="0 0 35.4 37.3" style="enable-background:new 0 0 35.4 37.3;" xml:space="preserve">
<style type="text/css">
	.st0{fill:#6C6D70;}
	.st1{fill:#ED412D;}
</style>
<g>
	<path class="st0" d="M24.8,27.2v9.4H33v-9.4H24.8z M25.8,35.6v-7.4H32v7.4H25.8z"/>
	<path class="st0" d="M13,36.6h8.2V18.7H13V36.6z M20.2,19.7v15.9H14V19.7H20.2z"/>
	<path class="st0" d="M1.1,36.6h8.2V11H1.1V36.6z M8.3,12v23.6H2.1V12H8.3z"/>
</g>
<path class="st1" d="M31.1,12.2l-0.8,0.6l2.6,3.1l-1,0c-0.2,0-0.3,0-0.5,0C15.5,15.9,8,4.2,6.1,0.6L6,0.5L5,0.9L5.1,1
	c1.4,2.6,9.5,15.7,26.2,15.8l1.7,0l-3.6,2.3l0.6,0.8l4.8-3.1l0.1-0.1L31.1,12.2z"/>
</svg>
