<?xml version="1.0" encoding="utf-8"?>
<!-- Generator: Adobe Illustrator 23.0.3, SVG Export Plug-In . SVG Version: 6.00 Build 0)  -->
<svg version="1.1" id="Layer_1" xmlns="http://www.w3.org/2000/svg" xmlns:xlink="http://www.w3.org/1999/xlink" x="0px" y="0px"
	 viewBox="0 0 91.74 92.45" style="enable-background:new 0 0 91.74 92.45;" xml:space="preserve">
<style type="text/css">
	.st0{fill:#FFFFFF;}
</style>
<g>
	<path class="st0" d="M14.7,24.28c0.02,0,0.05,0,0.07,0l15.91,0c0.34-0.02,0.69-0.18,0.93-0.41c0.27-0.27,0.42-0.61,0.42-0.94
		s-0.15-0.67-0.42-0.94c-0.27-0.26-0.6-0.41-0.94-0.41l-16.06,0c-0.32,0.03-0.64,0.19-0.88,0.47c-0.25,0.28-0.38,0.63-0.37,0.96
		c0.02,0.34,0.19,0.67,0.48,0.93C14.1,24.15,14.42,24.28,14.7,24.28z"/>
	<path class="st0" d="M70.24,21.57h-6.58v-6.55c0.01-0.64-0.23-0.89-0.31-0.97c-0.25-0.26-0.68-0.41-1.29-0.41
		c-0.61,0.12-1.12,0.75-1.11,1.35l0,6.58l-6.8,0c-0.29,0.02-0.62,0.2-0.86,0.47c-0.25,0.28-0.38,0.63-0.37,0.96
		c0.02,0.33,0.19,0.66,0.47,0.91c0.28,0.25,0.61,0.38,0.95,0.37l6.61,0v6.55c-0.01,0.35,0.14,0.69,0.41,0.96
		c0.26,0.26,0.6,0.41,0.94,0.41c0,0,0,0,0,0c0.35,0,0.68-0.15,0.94-0.41c0.27-0.27,0.42-0.62,0.41-0.94v-6.57l6.59,0
		c0.36-0.03,0.69-0.17,0.93-0.41c0.27-0.27,0.42-0.61,0.42-0.94s-0.16-0.67-0.42-0.94C70.92,21.72,70.55,21.56,70.24,21.57z"/>
	<path class="st0" d="M29.32,55.89l-0.12-0.11c-0.54-0.33-1.13-0.28-1.86,0.15l-4.6,4.59l-4.64-4.6c-0.82-0.6-1.35-0.46-1.96-0.02
		c-0.43,0.45-0.41,1.08,0.06,1.95l4.58,4.63l-4.61,4.61c-0.5,0.5-0.5,1.43,0,1.93c0.5,0.49,1.43,0.49,1.93,0l4.65-4.65l4.62,4.65
		c0.25,0.25,0.6,0.37,0.96,0.37c0.36,0,0.72-0.12,0.97-0.37c0.23-0.24,0.37-0.59,0.37-0.96c0-0.38-0.13-0.73-0.37-0.97l-4.65-4.61
		l4.67-4.67C29.74,57.28,29.9,56.76,29.32,55.89z"/>
	<path class="st0" d="M54.33,59.88C54.34,59.88,54.34,59.88,54.33,59.88l15.9,0c0.34-0.01,0.69-0.16,0.95-0.41
		c0.27-0.27,0.42-0.61,0.42-0.94s-0.16-0.67-0.42-0.94c-0.27-0.26-0.61-0.41-0.94-0.41l-16.05,0c-0.32,0.02-0.65,0.19-0.89,0.47
		c-0.25,0.28-0.38,0.63-0.37,0.96C52.97,59.27,53.64,59.88,54.33,59.88z"/>
	<path class="st0" d="M83.63,44.25l-0.15-0.18V8.92c-0.02-2.28-0.65-4.05-1.89-5.27c-1.55-1.54-3.78-1.86-5.37-1.86H8.85
		c-2.33,0-4.14,0.62-5.37,1.86C1.93,5.2,1.62,7.42,1.63,9.01v67.32c-0.01,1.62,0.31,3.86,1.86,5.4c1.57,1.56,3.82,1.89,5.43,1.89
		h34.95l0.18,0.15c5.08,4.37,11.57,6.77,18.27,6.77c15.48,0,28.07-12.59,28.07-28.06C90.38,55.81,87.98,49.33,83.63,44.25z M4.33,9
		c-0.05-1.3,0.39-2.7,1.06-3.4l0.07-0.06c1.08-0.9,2.27-1.03,3.39-1.04h32.32v36.85H4.33V9.01L4.33,9z M62.31,37.13
		c14,0,25.39,11.37,25.39,25.35c0,13.96-11.39,25.32-25.39,25.32c-13.98,0-25.36-11.36-25.36-25.32
		C36.95,48.5,48.33,37.13,62.31,37.13z M80.77,41.34l-1.01-0.81c-5.04-4.02-11.07-6.14-17.45-6.14c-6.37,0-12.4,2.11-17.42,6.11
		l-1.01,0.81V4.49h32.35c1.6,0,2.74,0.35,3.47,1.08c0.73,0.72,1.07,1.79,1.08,3.37V41.34z M41.16,80.91H8.92
		c-1.61,0-2.75-0.36-3.5-1.11c-0.75-0.75-1.09-1.84-1.08-3.45v-32.3h36.82l-0.8,1.01c-3.98,5.01-6.08,11.03-6.08,17.41
		c0,6.39,2.1,12.41,6.08,17.41L41.16,80.91z"/>
	<path class="st0" d="M70.3,65.09l-0.02,0l-16.05,0c-0.32,0.02-0.64,0.19-0.89,0.46c-0.25,0.28-0.39,0.63-0.38,0.96
		c0.02,0.34,0.19,0.69,0.47,0.94c0.26,0.23,0.56,0.35,0.86,0.35c0.02,0,0.05,0,0.07,0l15.87,0c0.34,0,0.69-0.14,0.96-0.41
		c0.27-0.27,0.42-0.61,0.42-0.94s-0.16-0.67-0.43-0.94C70.97,65.26,70.67,65.12,70.3,65.09z"/>
</g>
</svg>
