<?xml version="1.0" encoding="utf-8"?>
<!-- Generator: Adobe Illustrator 23.0.3, SVG Export Plug-In . SVG Version: 6.00 Build 0)  -->
<svg version="1.1" id="Layer_1" xmlns="http://www.w3.org/2000/svg" xmlns:xlink="http://www.w3.org/1999/xlink" x="0px" y="0px"
	 viewBox="0 0 65.24 89.96" style="enable-background:new 0 0 65.24 89.96;" xml:space="preserve">
<style type="text/css">
	.st0{fill:#6C6D70;}
	.st1{enable-background:new    ;}
	.st2{fill:#ED412D;}
</style>
<g>
	<path class="st0" d="M45.66,65.86H19.47c-0.3,0.02-0.58,0.15-0.78,0.37s-0.31,0.51-0.29,0.81c0.01,0.3,0.14,0.58,0.37,0.78
		c0.21,0.19,0.48,0.29,0.75,0.29c0.02,0,0.04,0,0.06,0h26.05c0.32,0,0.6-0.11,0.81-0.32c0.21-0.21,0.34-0.49,0.34-0.79
		s-0.11-0.59-0.32-0.8C46.24,65.99,45.96,65.87,45.66,65.86z"/>
	<path class="st0" d="M19.52,58.11h26.1c0.31,0,0.6-0.11,0.81-0.32s0.34-0.49,0.34-0.79s-0.11-0.59-0.32-0.8
		c-0.21-0.22-0.49-0.34-0.79-0.34H19.47c-0.3,0.01-0.58,0.14-0.78,0.37c-0.2,0.22-0.31,0.51-0.29,0.81
		C18.42,57.64,18.92,58.11,19.52,58.11z"/>
	<path class="st0" d="M62.62,1.86H2.48H2.47C1.92,1.92,1.49,2.41,1.49,2.98v76.01c0,0.31,0.14,0.61,0.37,0.82l8.99,7.99
		c0.22,0.2,0.46,0.3,0.72,0.3c0.03,0,0.06,0,0.09,0c0.31-0.01,0.59-0.14,0.79-0.37l6.17-7.04l6.16,7.04
		c0.41,0.46,1.12,0.5,1.59,0.09c0.03-0.03,0.07-0.06,0.1-0.1l6.15-7.03l6.16,7.04c0.41,0.46,1.12,0.5,1.59,0.09
		c0.03-0.03,0.06-0.06,0.09-0.1l6.16-7.03l6.16,7.04c0.2,0.22,0.47,0.36,0.77,0.37s0.59-0.08,0.81-0.28l9.02-8.02
		c0.23-0.21,0.36-0.5,0.36-0.82v-76C63.74,2.36,63.24,1.86,62.62,1.86z M61.5,4.11v74.37l-7.77,6.91l-6.27-7.17
		c-0.2-0.22-0.47-0.36-0.77-0.38c-0.3-0.01-0.59,0.08-0.81,0.28c-0.04,0.03-0.07,0.07-0.1,0.1l-6.16,7.04l-6.16-7.04
		c-0.2-0.22-0.47-0.36-0.77-0.38c-0.3-0.01-0.59,0.08-0.81,0.28c-0.04,0.03-0.07,0.07-0.1,0.1l-6.16,7.04l-6.16-7.04
		c-0.2-0.22-0.47-0.36-0.77-0.38c-0.3-0.01-0.59,0.08-0.81,0.28c-0.04,0.03-0.07,0.07-0.1,0.1l-6.27,7.16l-7.77-6.9V4.11H61.5z"/>
</g>
<g class="st1">
	<path class="st2" d="M26.73,20.4h13.11v0.03c-0.77,1.19-1.21,1.83-1.31,1.91h-3.5c0.48,0.56,0.81,1.25,0.98,2.06h3.74
		c0.05,0.01,0.07,0.03,0.07,0.05c-0.84,1.25-1.26,1.88-1.28,1.88H36.1c-0.05,0.65-0.36,1.42-0.93,2.33
		c-0.75,0.92-1.46,1.51-2.14,1.79c-1.27,0.61-2.49,0.91-3.65,0.91v0.03c0,0.09,0.29,0.47,0.86,1.13l6.48,7.81v0.37
		c0,0.04-0.02,0.05-0.07,0.05H33.8c-5.13-5.97-7.69-8.97-7.69-9v-1.81l0.03-0.07c0.45,0.06,0.99,0.09,1.6,0.09
		c2.87,0,4.66-0.93,5.36-2.79c0.11-0.27,0.16-0.55,0.16-0.84h-7.8c-0.04,0-0.05-0.02-0.05-0.05c0.86-1.25,1.3-1.88,1.32-1.88h6.19
		v-0.03c-0.35-0.72-1.04-1.28-2.06-1.68c-0.73-0.24-1.38-0.35-1.96-0.35h-3.46v-0.07C26.27,21.02,26.7,20.4,26.73,20.4z"/>
</g>
<path class="st2" d="M32.62,9.86c-11.1,0-20.12,9.03-20.12,20.13s9.02,20.12,20.12,20.12s20.12-9.03,20.12-20.13
	S43.72,9.86,32.62,9.86z M32.62,47.86c-9.86,0-17.88-8.02-17.88-17.88S22.76,12.1,32.62,12.1S50.5,20.12,50.5,29.98
	S42.48,47.86,32.62,47.86z"/>
</svg>
