<?xml version="1.0" encoding="utf-8"?>
<!-- Generator: Adobe Illustrator 23.0.3, SVG Export Plug-In . SVG Version: 6.00 Build 0)  -->
<svg version="1.1" id="Layer_1" xmlns="http://www.w3.org/2000/svg" xmlns:xlink="http://www.w3.org/1999/xlink" x="0px" y="0px"
	 viewBox="0 0 102.6 115.5" style="enable-background:new 0 0 102.6 115.5;" xml:space="preserve">
<style type="text/css">
	.st0{fill:#6C6D70;}
	.st1{fill:#ED412D;}
</style>
<g>
	<path class="st0" d="M99.7,9.4H47.9c-0.8,0-1.5,0.7-1.5,1.5V21c0,0.8,0.7,1.5,1.5,1.5h26.9c0.8,0,1.5-0.7,1.5-1.5v-8.6h21.9v98.8
		H24.4V54.7c0-0.8-0.7-1.5-1.5-1.5s-1.5,0.7-1.5,1.5v58c0,0.8,0.7,1.5,1.5,1.5h76.8c0.8,0,1.5-0.7,1.5-1.5V10.9
		C101.2,10.1,100.5,9.4,99.7,9.4z M49.4,19.5v-7.1h23.9v7.1H49.4z"/>
	<path class="st0" d="M37.9,52h45.8c0.8,0,1.5-0.7,1.5-1.5S84.5,49,83.7,49H37.9c-0.8,0-1.5,0.7-1.5,1.5S37.1,52,37.9,52z"/>
	<path class="st0" d="M37.9,63.4h45.8c0.8,0,1.5-0.7,1.5-1.5s-0.7-1.5-1.5-1.5H37.9c-0.8,0-1.5,0.7-1.5,1.5S37.1,63.4,37.9,63.4z"/>
	<path class="st0" d="M37.9,74.9h45.8c0.8,0,1.5-0.7,1.5-1.5s-0.7-1.5-1.5-1.5H37.9c-0.8,0-1.5,0.7-1.5,1.5S37.1,74.9,37.9,74.9z"/>
	<path class="st0" d="M37.9,86.4h45.8c0.8,0,1.5-0.7,1.5-1.5c0-0.8-0.7-1.5-1.5-1.5H37.9c-0.8,0-1.5,0.7-1.5,1.5
		C36.4,85.7,37.1,86.4,37.9,86.4z"/>
</g>
<g>
	<path class="st1" d="M39.6,11.2c-0.1,0-11.1-2.5-17.4-9.3c-0.3-0.3-0.7-0.5-1.1-0.5l-0.1,0c-0.4,0-0.8,0.2-1,0.5
		c-0.1,0.1-7.6,7.9-17.1,9.4c-0.6,0.1-1.1,0.6-1.2,1.2c0,0.2-4.5,23.6,17.2,32.7c0.2,0.1,0.4,0.1,0.6,0.1c0.1,0,0.3,0,0.4,0
		c0.2-0.1,20.9-5.8,21-32.4C40.8,12,40.3,11.4,39.6,11.2z M21.1,5L21.1,5L21.1,5c5.7,5.4,13.6,8,16.7,8.9
		c-0.6,21.4-15.3,27.3-18.3,28.2l0,0C2.9,34.9,3.7,18.8,4.4,14v0C12.4,12.4,18.7,7.2,21.1,5z"/>
	<path class="st1" d="M16.7,29.2c0.3,0.3,0.7,0.4,1.1,0.4c0.4,0,0.7-0.1,1-0.4L29,19.6c0.3-0.3,0.5-0.6,0.5-1c0-0.4-0.1-0.8-0.4-1.1
		c-0.3-0.3-0.6-0.5-1-0.5c-0.4,0-0.8,0.1-1.1,0.4L17.8,26l-2.5-2.5c-0.6-0.6-1.6-0.6-2.1,0c-0.3,0.3-0.4,0.7-0.4,1.1
		c0,0.4,0.2,0.8,0.4,1.1L16.7,29.2z"/>
</g>
</svg>
