<?xml version="1.0" encoding="utf-8"?>
<!-- Generator: Adobe Illustrator 23.0.3, SVG Export Plug-In . SVG Version: 6.00 Build 0)  -->
<svg version="1.1" id="Layer_1" xmlns="http://www.w3.org/2000/svg" xmlns:xlink="http://www.w3.org/1999/xlink" x="0px" y="0px"
	 viewBox="0 0 93.18 82.43" style="enable-background:new 0 0 93.18 82.43;" xml:space="preserve">
<style type="text/css">
	.st0{fill:#ED412D;}
	.st1{fill:#6C6D70;}
</style>
<g>
	<path class="st0" d="M70.23,21.25c-3.14-5.88-10.48-8.1-16.36-4.96c-2.11,1.13-3.83,2.85-4.96,4.96l-0.04,0.07H27.5
		c-0.32,0-0.62,0.12-0.86,0.33L21.86,26c-0.53,0.47-0.58,1.28-0.11,1.81c0.04,0.04,0.07,0.08,0.11,0.11l4.79,4.32
		c0.41,0.38,1.02,0.44,1.5,0.16l3.83-2.23l3.58,2.2c0.42,0.26,0.93,0.26,1.35,0l3.46-2.14l2.74,2.1c0.22,0.16,0.49,0.25,0.77,0.25
		h4.99l0.04,0.07c1.52,2.85,4.06,4.93,7.15,5.87s6.36,0.61,9.21-0.91s4.93-4.06,5.87-7.15C72.08,27.37,71.75,24.1,70.23,21.25z
		 M68.27,30.8c-1.56,3.54-5.06,5.67-8.72,5.67c-1.28,0-2.58-0.26-3.82-0.81c-2.19-0.96-3.92-2.7-4.89-4.89
		c-0.21-0.46-0.66-0.76-1.17-0.76h-5.35l-0.03-0.02l-3.11-2.33c-0.42-0.32-0.99-0.34-1.44-0.06l-3.54,2.17l-3.53-2.15
		c-0.41-0.24-0.91-0.24-1.32,0l-3.69,2.16l-3.05-2.77l3.38-3.13h21.67c0.51,0,0.97-0.3,1.17-0.76c1.02-2.33,2.89-4.12,5.27-5.04
		c2.37-0.92,4.96-0.87,7.29,0.16c2.33,1.02,4.12,2.89,5.04,5.27C69.35,25.88,69.3,28.47,68.27,30.8z"/>
	<path class="st0" d="M59.2,20.61c-0.71,0-1.28,0.57-1.28,1.28v10.15c0,0.71,0.57,1.28,1.28,1.28c4.17,0,7.09-2.62,7.09-6.37
		C66.29,23.22,63.37,20.61,59.2,20.61z M60.63,30.61l-0.15,0.03V23.3l0.15,0.04c1.16,0.27,3.1,1.1,3.1,3.63
		C63.73,28.84,62.6,30.16,60.63,30.61z"/>
</g>
<g>
	<path class="st1" d="M70.44,46.48H22.66c-0.78,0-1.41,0.63-1.41,1.41c0,0.78,0.63,1.41,1.41,1.41h47.78c0.78,0,1.41-0.63,1.41-1.41
		S71.21,46.48,70.44,46.48z"/>
	<path class="st1" d="M70.44,54.91H22.66c-0.78,0-1.41,0.63-1.41,1.41c0,0.78,0.63,1.41,1.41,1.41h47.78c0.78,0,1.41-0.63,1.41-1.41
		S71.21,54.91,70.44,54.91z"/>
	<path class="st1" d="M87.3,1.51H5.8c-2.32,0.02-4.2,1.9-4.22,4.22v59.02c0.02,2.32,1.9,4.2,4.22,4.22h39.35v8.43H23.36
		c-0.78,0-1.41,0.63-1.41,1.41c0,0.78,0.63,1.41,1.41,1.41h46.37c0.78,0,1.41-0.63,1.41-1.41c0-0.78-0.63-1.41-1.41-1.41H47.96
		v-8.44h39.35c2.32-0.02,4.2-1.9,4.22-4.22V5.73C91.5,3.41,89.62,1.53,87.3,1.51z M88.71,64.75c0,0.78-0.63,1.41-1.41,1.41H5.8
		c-0.78,0-1.41-0.63-1.41-1.41V5.73c0-0.78,0.63-1.41,1.41-1.41h81.5c0.78,0,1.41,0.63,1.41,1.41V64.75z"/>
</g>
</svg>
