<?xml version="1.0" encoding="utf-8"?>
<!-- Generator: Adobe Illustrator 23.0.3, SVG Export Plug-In . SVG Version: 6.00 Build 0)  -->
<svg version="1.1" id="Layer_1" xmlns="http://www.w3.org/2000/svg" xmlns:xlink="http://www.w3.org/1999/xlink" x="0px" y="0px"
	 viewBox="0 0 60.21 70.25" style="enable-background:new 0 0 60.21 70.25;" xml:space="preserve">
<style type="text/css">
	.st0{fill:#2474B9;}
</style>
<path class="st0" d="M36.68,36.86C43.31,34.16,48,27.61,48,20.2c0-9.93-8.08-18-18-18c-9.93,0-18,8.07-18,18
	c0,7.54,4.59,14,11.27,16.67C10.84,39.92,2,51.21,2,65c0,1.65,1.35,3,3,3s3-1.35,3-3c0-13.11,9.46-23,22-23s22,9.89,22,23
	c0,1.65,1.35,3,3,3s3-1.35,3-3C58,51.19,49.13,39.89,36.68,36.86z M30,8.2c6.62,0,12,5.38,12,12s-5.38,12-12,12
	c-6.62,0-12-5.38-12-12S23.38,8.2,30,8.2z"/>
</svg>
