<?xml version="1.0" encoding="UTF-8"?>
<svg id="Layer_1" data-name="Layer 1" xmlns="http://www.w3.org/2000/svg" viewBox="0 0 50 50">
  <defs>
    <style>
      .cls-1 {
        fill: #ed412d;
      }

      .cls-1, .cls-2 {
        stroke-width: 0px;
      }

      .cls-2 {
        fill: #6d6d70;
      }
    </style>
  </defs>
  <path class="cls-2" d="m24.59,2.51c2.77.04,4.96.31,7.08,1.03.64.22.93.64.86,1.21-.07.55-.43.88-.95.95-.28.04-.59-.09-.88-.14-1.61-.26-3.21-.7-4.82-.74-7.83-.2-13.98,3.01-18.13,9.64-4.64,7.41-3.82,16.84,1.64,23.42,3.2,3.85,7.27,6.31,12.22,7.07,7.32,1.13,13.59-1.06,18.57-6.58,3.84-4.26,5.4-9.36,5-15.04-.09-1.29-.46-2.57-.7-3.85-.03-.18-.1-.35-.13-.53-.12-.74.22-1.28.88-1.42.58-.12,1.13.21,1.29.9.31,1.33.67,2.66.82,4.01.63,5.54-.61,10.66-3.78,15.25-3.5,5.09-8.32,8.26-14.38,9.39-11.9,2.23-23.32-5.13-26.02-16.93-1.96-8.53.45-15.92,6.86-21.88,4.22-3.92,9.36-5.71,14.56-5.77Z"/>
  <path class="cls-2" d="m25.12,38.36c5.9-.02,11.1-3.85,12.83-9.49.47-1.53.66-3.1.54-4.71-.07-.84.36-1.4,1.09-1.47.57-.06,1.09.44,1.16,1.22.17,1.97-.07,3.91-.71,5.77-1.68,4.91-4.92,8.32-9.84,10.08-6.79,2.43-14.69-.42-18.42-6.59-1.8-2.98-2.63-6.19-2.3-9.64.43-4.5,2.43-8.22,6.03-11.01,2.85-2.21,6.11-3.25,9.71-3.29.34,0,.69.02,1.02.09.66.15,1.07.73.99,1.32-.08.55-.64.95-1.32.89-1.86-.15-3.64.16-5.4.76-4.81,1.65-8.47,6.48-8.78,11.55-.27,4.47,1.21,8.24,4.57,11.2,2.51,2.2,5.49,3.31,8.85,3.3Z"/>
  <path class="cls-1" d="m40.78,9.23c1.13,0,2.17,0,3.21,0,.49,0,.92.1,1.14.62.2.47.2.9-.18,1.28-2.23,2.24-4.46,4.48-6.72,6.69-.27.26-.76.37-1.16.39-1.04.05-2.1-.01-3.14.04-.32.01-.7.17-.93.39-2.29,2.24-4.55,4.51-6.82,6.77-.16.16-.32.31-.5.43-.49.31-1.09.24-1.43-.15-.37-.43-.39-.97-.02-1.44.2-.25.44-.47.66-.7,2.16-2.17,4.32-4.34,6.5-6.49.32-.31.44-.63.43-1.06-.03-1.03-.06-2.06.02-3.08.03-.44.21-.97.51-1.28,2.09-2.15,4.23-4.25,6.35-6.38.41-.41.85-.62,1.41-.38.54.23.68.7.67,1.24,0,1,0,2.01,0,3.12Zm.6,2.26c-.6,0-1.02,0-1.44,0-.99-.01-1.38-.4-1.41-1.4-.01-.43,0-.86,0-1.37-.18.11-.25.14-.31.19-1.31,1.31-2.63,2.61-3.93,3.92-.08.08-.2.19-.2.29-.02.93,0,1.87,0,2.84.87,0,1.65.03,2.43-.02.27-.01.59-.14.78-.33,1.23-1.19,2.43-2.41,3.64-3.62.12-.12.23-.26.45-.52Z"/>
  <path class="cls-2" d="m25.08,31.65c3.6,0,6.57-2.82,6.71-6.41.02-.5.08-1.02.58-1.23.32-.13.75-.14,1.07-.03.48.17.63.65.61,1.15-.1,2.42-.96,4.51-2.7,6.21-2.6,2.54-6.48,3.3-9.79,1.82-3.52-1.57-5.35-4.38-5.43-8.21-.1-4.72,3.78-8.77,8.5-8.98.31-.01.72-.03.93.15.29.24.56.64.62,1.01.07.45-.23.85-.71.99-.23.07-.47.1-.71.11-3.66.18-6.46,3.23-6.37,6.94.08,3.57,3.08,6.48,6.7,6.49Z"/>
</svg>