<?xml version="1.0" encoding="utf-8"?>
<!-- Generator: Adobe Illustrator 23.0.3, SVG Export Plug-In . SVG Version: 6.00 Build 0)  -->
<svg version="1.1" id="Layer_1" xmlns="http://www.w3.org/2000/svg" xmlns:xlink="http://www.w3.org/1999/xlink" x="0px" y="0px"
	 viewBox="0 0 14.67 14.67" style="enable-background:new 0 0 14.67 14.67;" xml:space="preserve">
<style type="text/css">
	.st0{fill:#6C6D70;}
	.st1{fill:#ED412D;}
	.st2{enable-background:new    ;}
</style>
<g>
	<g>
		<path class="st0" d="M12.1,10.15c0.39,0,0.7-0.32,0.7-0.7c0-0.39-0.32-0.7-0.7-0.7s-0.7,0.32-0.7,0.7
			C11.4,9.84,11.71,10.15,12.1,10.15z M11.75,9.45c0-0.19,0.16-0.35,0.35-0.35s0.35,0.16,0.35,0.35c0,0.19-0.16,0.35-0.35,0.35
			S11.75,9.64,11.75,9.45z"/>
		<path class="st0" d="M14.48,7.67H12.1c-0.98,0-1.78,0.8-1.78,1.78s0.8,1.78,1.78,1.78h2.38c0.1,0,0.19-0.08,0.19-0.19V7.87
			C14.67,7.76,14.58,7.67,14.48,7.67z M14.29,8.05v2.8H12.1c-0.78,0-1.4-0.61-1.4-1.4c0-0.78,0.61-1.4,1.4-1.4
			C12.1,8.05,14.29,8.05,14.29,8.05z"/>
		<path class="st0" d="M13.5,6.8c0,0.1,0.08,0.19,0.19,0.19c0.1,0,0.19-0.08,0.19-0.19V4.42c0-0.1-0.08-0.19-0.19-0.19H3.37
			c-0.98,0-1.78,0.8-1.78,1.78V7.6c0,0.05,0.02,0.1,0.05,0.14C1.67,7.77,1.71,7.79,1.78,7.8c0.1,0,0.19-0.08,0.19-0.19v-1.6
			c0-0.78,0.61-1.4,1.4-1.4H13.5V6.8z"/>
		<path class="st0" d="M13.69,11.9L13.69,11.9c-0.11,0-0.19,0.09-0.19,0.19v2.19H6.01c-0.05,0-0.1,0.02-0.13,0.05
			c-0.04,0.03-0.06,0.08-0.06,0.13s0.02,0.1,0.05,0.13c0.04,0.04,0.08,0.06,0.13,0.06h7.68c0.1,0,0.19-0.08,0.19-0.19v-2.38
			C13.88,11.99,13.79,11.9,13.69,11.9z M13.68,11.95L13.68,11.95L13.68,11.95L13.68,11.95z"/>
		<path class="st0" d="M4.95,0.38h6.7v2.99c0,0.11,0.08,0.19,0.19,0.19c0.05,0,0.1-0.02,0.13-0.05c0.04-0.04,0.06-0.08,0.06-0.13
			V0.19c0-0.1-0.08-0.19-0.19-0.19H4.95c-0.1,0-0.19,0.08-0.19,0.19c0,0.05,0.02,0.1,0.05,0.14C4.85,0.36,4.9,0.38,4.95,0.38z"/>
		<path class="st0" d="M4.03,3.5c0.04-0.03,0.06-0.08,0.06-0.13V1.44h6.5v1.93c0,0.05,0.02,0.1,0.05,0.14s0.08,0.06,0.14,0.06
			c0.1,0,0.19-0.08,0.19-0.19V1.25c0-0.1-0.08-0.19-0.19-0.19H3.9c-0.1,0-0.19,0.08-0.19,0.19v2.12c0,0.05,0.02,0.1,0.05,0.14
			C3.83,3.57,3.96,3.58,4.03,3.5z"/>
		<path class="st0" d="M9.58,3.5c0.04,0.04,0.1,0.06,0.13,0.06l0,0c0.05,0,0.1-0.02,0.13-0.05C9.88,3.47,9.9,3.43,9.9,3.38v-0.3
			c0-0.07-0.04-0.13-0.09-0.16c-0.29-0.17-0.54-0.41-0.7-0.7c-0.03-0.06-0.1-0.09-0.16-0.09H5.73c-0.07,0-0.13,0.04-0.16,0.1
			C5.39,2.5,5.15,2.75,4.86,2.92C4.8,2.95,4.77,3.01,4.77,3.08v0.29c0,0.11,0.08,0.19,0.19,0.19c0.05,0,0.1-0.02,0.13-0.05
			c0.04-0.04,0.06-0.08,0.06-0.13v-0.2l0.03-0.02C5.42,3,5.63,2.79,5.8,2.54l0.02-0.03h3.04l0.02,0.03
			c0.16,0.24,0.37,0.45,0.61,0.62l0.03,0.02v0.2C9.53,3.42,9.55,3.46,9.58,3.5z"/>
	</g>
	<path class="st1" d="M3.1,8.47c-1.71,0-3.1,1.39-3.1,3.1s1.39,3.1,3.1,3.1s3.1-1.39,3.1-3.1S4.81,8.47,3.1,8.47z M5.82,11.57
		c0,1.5-1.22,2.72-2.72,2.72s-2.72-1.22-2.72-2.72S1.6,8.85,3.1,8.85C4.6,8.85,5.82,10.07,5.82,11.57z"/>
	<g class="st2">
		<path class="st1" d="M2.25,10.2h1.9l0,0c-0.11,0.17-0.17,0.26-0.19,0.28H3.45c0.07,0.08,0.12,0.18,0.14,0.3h0.54
			c0.01,0,0.01,0,0.01,0.01c-0.12,0.18-0.18,0.27-0.19,0.27H3.61c-0.01,0.09-0.05,0.21-0.13,0.34c-0.11,0.13-0.21,0.22-0.31,0.26
			c-0.18,0.09-0.36,0.13-0.53,0.13l0,0c0,0.01,0.04,0.07,0.12,0.16l0.94,1.13v0.05c0,0,0,0.01-0.01,0.01H3.27
			c-0.74-0.87-1.11-1.3-1.11-1.3v-0.26v-0.01c0.07,0.01,0.14,0.01,0.23,0.01c0.42,0,0.67-0.13,0.78-0.4
			c0.02-0.04,0.02-0.08,0.02-0.12H2.07c0,0-0.01,0-0.01-0.01c0.12-0.18,0.19-0.27,0.19-0.27h0.9l0,0C3.1,10.68,3,10.6,2.85,10.54
			c-0.11-0.03-0.2-0.05-0.28-0.05h-0.5v-0.01C2.18,10.29,2.25,10.2,2.25,10.2z"/>
	</g>
</g>
</svg>
