<?xml version="1.0" encoding="utf-8"?>
<!-- Generator: Adobe Illustrator 23.0.3, SVG Export Plug-In . SVG Version: 6.00 Build 0)  -->
<svg version="1.1" id="Layer_1" xmlns="http://www.w3.org/2000/svg" xmlns:xlink="http://www.w3.org/1999/xlink" x="0px" y="0px"
	 viewBox="0 0 51.2 82.9" style="enable-background:new 0 0 51.2 82.9;" xml:space="preserve">
<style type="text/css">
	.st0{fill:#ED412D;}
	.st1{fill:#6C6D70;}
</style>
<path class="st0" d="M40.3,17.4c0.1-0.4,0-0.7-0.3-1c-0.3-0.3-0.6-0.4-1-0.3l-2.3,0.7c-2.1,0.6-4.4,0.6-6.6,0l-2.3-0.7
	c-0.4-0.1-0.7,0-1,0.3c-0.3,0.3-0.4,0.6-0.3,1l0.7,2.3c0.6,2.1,0.6,4.4,0,6.6l-0.7,2.3c-0.1,0.4,0,0.7,0.3,1c0.3,0.3,0.6,0.4,1,0.3
	l2.3-0.7c2.1-0.6,4.4-0.6,6.6,0l2.3,0.7c0.1,0,0.2,0,0.3,0c0.3,0,0.5-0.1,0.7-0.3c0.3-0.3,0.4-0.6,0.3-1l-0.7-2.3
	c-0.6-2.1-0.6-4.4,0-6.6L40.3,17.4z M37.7,26.9l0.2,0.6l-0.6-0.2c-1.3-0.4-2.5-0.6-3.8-0.6s-2.6,0.2-3.8,0.6L29,27.5l0.2-0.6
	c0.7-2.5,0.7-5.2,0-7.7L29,18.6l0.6,0.2c2.5,0.7,5.2,0.7,7.7,0l0.6-0.2l-0.2,0.6C37,21.7,37,24.4,37.7,26.9z"/>
<path class="st0" d="M22.6,25.1c0.1-0.4,0-0.7-0.3-1c-0.3-0.3-0.6-0.4-1-0.3l-1.8,0.5c-1.6,0.5-3.3,0.5-4.9,0L13,23.9
	c-0.4-0.1-0.7,0-1,0.3c-0.3,0.3-0.4,0.6-0.3,1l0.5,1.8c0.5,1.6,0.5,3.3,0,4.9l-0.5,1.8c-0.1,0.4,0,0.7,0.3,1s0.6,0.4,1,0.3l1.8-0.5
	c1.6-0.5,3.3-0.5,4.9,0l1.8,0.5c0.1,0,0.2,0,0.3,0c0.3,0,0.5-0.1,0.7-0.3c0.3-0.3,0.4-0.6,0.3-1l-0.5-1.8c-0.5-1.6-0.5-3.3,0-4.9
	L22.6,25.1z M20.2,32.3L20.2,32.3L20.2,32.3c-2-0.6-4-0.6-6,0l0,0l0,0c0.6-2,0.6-4,0-6l0,0l0,0c2,0.6,4,0.6,6,0l0,0l0,0
	C19.6,28.3,19.6,30.4,20.2,32.3z"/>
<path class="st0" d="M34.2,34.1c-0.4-0.4-1-0.4-1.4,0L30.9,36L29,34.1c-0.4-0.4-1-0.4-1.4,0s-0.4,1,0,1.4l1.9,1.9l-1.9,1.9
	c-0.4,0.4-0.4,1,0,1.4c0.2,0.2,0.5,0.3,0.7,0.3s0.5-0.1,0.7-0.3l1.9-1.9l1.9,1.9c0.2,0.2,0.5,0.3,0.7,0.3s0.5-0.1,0.7-0.3
	c0.4-0.4,0.4-1,0-1.4l-1.9-1.9l1.9-1.9C34.6,35.1,34.6,34.5,34.2,34.1z"/>
<path class="st0" d="M15,19.7c0.2,0.2,0.5,0.3,0.7,0.3s0.5-0.1,0.7-0.3l1.9-1.9l1.9,1.9c0.2,0.2,0.5,0.3,0.7,0.3s0.5-0.1,0.7-0.3
	c0.4-0.4,0.4-1,0-1.4l-1.9-1.9l1.9-1.9c0.4-0.4,0.4-1,0-1.4s-1-0.4-1.4,0l-1.9,1.9l-1.9-1.9c-0.4-0.4-1-0.4-1.4,0s-0.4,1,0,1.4
	l1.9,1.9L15,18.2C14.6,18.6,14.6,19.3,15,19.7z"/>
<path class="st1" d="M50,25C49.5,12.8,39.7,2.7,27.5,2c-6.7-0.4-13.1,1.9-18,6.5C4.8,12.9,2,19.3,2,25.9C2,32,4.3,37.8,8.4,42.2
	c3.6,3.9,5.3,7.6,5.5,12.2h0c-2.2,0-4,1.8-4,4v1.2c0,1.7,1.1,3.1,2.6,3.7v7.8c0,2,1.6,3.6,3.6,3.6h0.2v2.5c0,2.6,2.1,4.7,4.7,4.7H31
	c2.6,0,4.7-2.1,4.7-4.7v-2.5h0.2c2,0,3.6-1.6,3.6-3.6v-7.8c1.5-0.6,2.6-2,2.6-3.7v-1.2c0-2.2-1.8-4-4-4H38c0.2-4.6,1.9-8.3,5.5-12.2
	C47.9,37.6,50.2,31.4,50,25z M33.6,77.2c0,1.5-1.2,2.7-2.7,2.7H21c-1.5,0-2.7-1.2-2.7-2.7v-2.5h15.2V77.2z M35.8,72.8H16.2
	c-0.9,0-1.6-0.7-1.6-1.6v-7.5h22.9v7.5C37.5,72,36.7,72.8,35.8,72.8z M40,58.4v1.2c0,1.1-0.9,2-2,2H14c-1.1,0-2-0.9-2-2v-1.2
	c0-1.1,0.9-2,2-2h24.1C39.2,56.5,40,57.4,40,58.4z M36,54.5H16c-0.2-5.2-2.1-9.3-6.1-13.6C6.1,36.8,4,31.5,4,25.9
	c0-6.1,2.5-11.8,6.9-16C15.4,5.7,21.3,3.6,27.4,4C38.5,4.6,47.6,13.9,48,25c0.2,5.9-1.9,11.6-5.9,15.9C38,45.2,36.2,49.3,36,54.5z"
	/>
</svg>
