<?xml version="1.0" encoding="utf-8"?>
<!-- Generator: Adobe Illustrator 23.0.3, SVG Export Plug-In . SVG Version: 6.00 Build 0)  -->
<svg version="1.1" id="Layer_1" xmlns="http://www.w3.org/2000/svg" xmlns:xlink="http://www.w3.org/1999/xlink" x="0px" y="0px"
	 viewBox="0 0 90.87 80.29" style="enable-background:new 0 0 90.87 80.29;" xml:space="preserve">
<style type="text/css">
	.st0{fill-rule:evenodd;clip-rule:evenodd;fill:#FFFFFF;}
</style>
<g>
	<path class="st0" d="M83.73,27.97c1.04,0.62,1.42,1.92,0.81,2.95c-3.38,5.76-6.72,11.64-10.06,17.46c-0.3,0.52-0.09,1.26,0.43,1.56
		c0.52,0.3,1.26,0.09,1.56-0.43L86.5,32.05c1.23-2.11,0.45-4.84-1.63-6.07l-2.62-1.53c0.35-0.64,0.77-1.32,1.13-1.92
		c1.31-2.3,0.5-5.28-1.81-6.6l-3.44-2.02c-0.72-0.41-1.52-0.62-2.3-0.64v0c-1.72-0.04-3.42,0.82-4.32,2.41L44.94,61.75
		c-0.13,0.23-0.18,0.35-0.21,0.53l-2.3,15.51c-0.09,0.87,1.11,1.56,1.81,1.03l12.08-9.69c0.25-0.22,0.35-0.35,0.5-0.57l24.31-42.15
		C81.99,26.9,82.91,27.45,83.73,27.97z M54.86,67.39l-9.78,7.84l1.88-12.42l0.25-0.46c0.16-0.02,0.32-0.03,0.46-0.04v0
		c1.05,0.01,2.72,0.53,4.18,1.38c1.6,0.93,2.91,2.29,3.3,3.16L54.86,67.39z M56.45,64.62c-0.86-1.12-2.11-2.08-3.47-2.87
		c-1.43-0.84-2.97-1.47-4.46-1.63l24.98-43.29c0.43-0.76,1.19-1.22,2.02-1.28c0.5-0.04,1.03,0.06,1.49,0.32l3.44,2.02
		c1.22,0.69,1.65,2.28,0.96,3.51L56.45,64.62z"/>
	<path class="st0" d="M87.89,62.73c-0.01,0-0.03,0-0.04,0H66.07c-0.63-0.01-1.14,0.49-1.16,1.11c-0.01,0.63,0.49,1.15,1.11,1.16
		c0.01,0,0.03,0,0.04,0h21.77c0.63,0.01,1.14-0.49,1.16-1.11S88.51,62.74,87.89,62.73z"/>
	<path class="st0" d="M37.96,62.74H11.28c-2.76,0-4.67-1-5.99-2.48c-1.31-1.48-2.02-3.5-2.02-5.54c0-2.04,0.71-4.05,2.02-5.54
		s3.23-2.48,5.99-2.48c11.97,0,23.95,0,35.93,0c0.6,0.01,1.15-0.54,1.15-1.14c0-0.6-0.55-1.14-1.15-1.14c-12.52,0-25.21,0-35.93,0
		c-2.76,0-4.67-1-5.99-2.48s-2.02-3.5-2.02-5.54s0.71-4.05,2.02-5.54s3.23-2.48,5.99-2.48c3.01,0,6.02,0,9.04,0v7.59
		c0.02,0.83,1.14,1.38,1.81,0.89l10.84-8.16l10.84,8.16c0.66,0.53,1.84-0.04,1.84-0.89v-7.59h12.72c0.6,0.01,1.15-0.54,1.15-1.14
		s-0.55-1.14-1.15-1.14H45.64V10.08h42.2c0.6,0.01,1.15-0.54,1.15-1.14s-0.55-1.14-1.15-1.14h-42.2V2.14C45.64,1.54,45.1,1,44.51,1
		H21.44c-0.71,0.01-1.12,0.63-1.13,1.14v5.68h-9.04c-3.33,0-5.96,1.28-7.69,3.23C1.86,12.99,1,15.56,1,18.1s0.86,5.08,2.59,7.03
		c0.76,0.85,1.68,1.58,2.76,2.13c-1.08,0.54-2.01,1.25-2.76,2.09C1.86,31.3,1,33.87,1,36.41c0,2.54,0.86,5.08,2.59,7.03
		c0.76,0.85,1.68,1.58,2.76,2.13c-1.08,0.55-2.01,1.24-2.76,2.09C1.86,49.61,1,52.18,1,54.72c0,2.54,0.86,5.08,2.59,7.03
		s4.36,3.26,7.69,3.26h26.68c0.6,0.01,1.15-0.54,1.15-1.14C39.11,63.28,38.55,62.73,37.96,62.74z M22.58,27.26v-5.04V3.27h20.8
		v30.45l-9.74-7.35c-0.39-0.29-0.96-0.29-1.35,0l-9.71,7.35V27.26z M5.29,23.64c-1.31-1.48-2.02-3.5-2.02-5.54
		c0-2.04,0.71-4.05,2.02-5.54s3.23-2.48,5.99-2.48l0,0h9.04v12.14v3.9c-3.01,0-6.02,0-9.04,0C8.52,26.12,6.6,25.12,5.29,23.64z"/>
</g>
</svg>
