<?xml version="1.0" encoding="utf-8"?>
<!-- Generator: Adobe Illustrator 23.0.3, SVG Export Plug-In . SVG Version: 6.00 Build 0)  -->
<svg version="1.1" id="Layer_1" xmlns="http://www.w3.org/2000/svg" xmlns:xlink="http://www.w3.org/1999/xlink" x="0px" y="0px" viewBox="0 0 29.76 29.22" style="enable-background:new 0 0 29.76 29.22;" xml:space="preserve">
    <style type="text/css">
        .st0 {
            fill: #FFFFFF;
        }

    </style>
    <g>
        <path class="st0" d="M4.28,23.12c-0.19,0-0.37,0.13-0.48,0.3c-0.09,0.15-0.08,0.29-0.05,0.38c0.04,0.14,0.14,0.26,0.28,0.34
		c4.19,2.33,8.47,3.79,12.71,4.33c1.72,0.2,3.2,0.3,4.64,0.3c2.84,0,5.19-0.34,6.72-0.59c0.23-0.05,0.44-0.29,0.39-0.62
		c-0.05-0.23-0.29-0.44-0.62-0.39c-0.61,0.1-1.31,0.2-2.12,0.3l-0.45,0.06l-1.93-8.38l5.96-16.96c0.09-0.23-0.06-0.55-0.32-0.65
		c-0.23-0.09-0.55,0.06-0.65,0.32l-2.33,6.76L10.91,6.56c-0.14-0.03-0.28,0.01-0.38,0.1c-0.07,0.06-0.15,0.16-0.15,0.3
		c0,0.22,0.05,0.6,0.4,0.6l4.6,0.57l-1,4.89l-2.47-0.37c-0.66-0.08-1.37,0.11-1.91,0.54c-0.52,0.41-0.84,0.98-0.92,1.63
		c-0.17,1.25,0.66,2.51,1.81,2.75l0.63,0.14l-3.61,7.21l-0.44-0.2c-1.49-0.69-2.4-1.16-2.97-1.54C4.43,23.14,4.35,23.12,4.28,23.12z
		 M24.41,27.77h-0.63c-2.13,0-4.33,0-6.86-0.3l-0.01,0c-2.7-0.39-5.36-1.07-7.51-1.93l-0.5-0.2l3.71-7.42l9.89,1.72L24.41,27.77z
		 M22.51,18.53l-11.22-1.97c-0.43,0.02-0.74-0.31-0.97-0.54l-0.1-0.13c-0.11-0.23-0.27-0.65-0.15-1.03
		c0.04-0.45,0.33-0.73,0.54-0.95c0.35-0.35,0.81-0.35,1.05-0.35l11.87,2.01L22.51,18.53z M24.01,14.53l-8.52-1.34l0.87-4.87
		l9.38,1.24L24.01,14.53z" />
    </g>
    <g>
        <g>
            <path class="st0" d="M5.02,11.77h1.33L2.77,7.44C2.26,6.86,2.24,6.77,2.24,6.68v-0.2l0.2-0.02c0.62,0,1.29-0.17,1.98-0.5
			C4.78,5.82,5.16,5.5,5.55,5.01C5.84,4.55,6.01,4.13,6.03,3.8l0.02-0.18H7.5c0.06-0.09,0.19-0.28,0.47-0.7l-1.96,0L5.98,2.77
			C5.89,2.35,5.72,1.99,5.47,1.69L5.19,1.36h2.32C7.57,1.29,7.7,1.11,7.98,0.67H1.03C0.97,0.75,0.84,0.94,0.55,1.36h1.61
			c0.35,0,0.74,0.07,1.17,0.21c0.63,0.25,1.06,0.6,1.28,1.05l0.02,0.09v0.2l-0.2,0.02h-3.4c-0.06,0.09-0.2,0.28-0.48,0.69h4.28v0.2
			c0,0.19-0.04,0.37-0.11,0.55C4.29,5.5,3.21,6.08,1.5,6.08c-0.26,0-0.5-0.01-0.72-0.03l0,0.77C0.98,7.04,1.91,8.15,5.02,11.77z" />
        </g>
    </g>
</svg>
