<?xml version="1.0" encoding="utf-8"?>
<!-- Generator: Adobe Illustrator 23.0.3, SVG Export Plug-In . SVG Version: 6.00 Build 0)  -->
<svg version="1.1" id="Layer_1" xmlns="http://www.w3.org/2000/svg" xmlns:xlink="http://www.w3.org/1999/xlink" x="0px" y="0px"
	 viewBox="0 0 71.46 53.43" style="enable-background:new 0 0 71.46 53.43;" xml:space="preserve">
<style type="text/css">
	.st0{fill:#ED412D;}
	.st1{fill:#6C6D70;}
</style>
<g>
	<path class="st0" d="M30.29,11.23H9.57c-0.41,0-0.75,0.34-0.75,0.75s0.34,0.75,0.75,0.75h20.72c0.41,0,0.75-0.34,0.75-0.75
		S30.71,11.23,30.29,11.23z"/>
	<path class="st0" d="M9.57,20.88h9.95c0.41,0,0.75-0.34,0.75-0.75s-0.34-0.75-0.75-0.75H9.57c-0.41,0-0.75,0.34-0.75,0.75
		S9.16,20.88,9.57,20.88z"/>
	<path class="st0" d="M27.53,27.52H9.57c-0.41,0-0.75,0.34-0.75,0.75c0,0.41,0.34,0.75,0.75,0.75h17.96c0.41,0,0.75-0.34,0.75-0.75
		S27.94,27.52,27.53,27.52z"/>
	<path class="st0" d="M9.57,37.17h7.36c0.41,0,0.75-0.34,0.75-0.75s-0.34-0.75-0.75-0.75H9.57c-0.41,0-0.75,0.34-0.75,0.75
		S9.16,37.17,9.57,37.17z"/>
	<path class="st0" d="M20.81,43.81H9.57c-0.41,0-0.75,0.34-0.75,0.75s0.34,0.75,0.75,0.75h11.24c0.41,0,0.75-0.34,0.75-0.75
		S21.22,43.81,20.81,43.81z"/>
</g>
<g>
	<path class="st1" d="M53.92,34.57c-0.41,0-0.75,0.34-0.75,0.75v15.61H3.1V5.26h43.64c0.41,0,0.75-0.34,0.75-0.75
		s-0.34-0.75-0.75-0.75H2.35C1.94,3.76,1.6,4.1,1.6,4.51v47.17c0,0.41,0.34,0.75,0.75,0.75h51.57c0.41,0,0.75-0.34,0.75-0.75V35.32
		C54.67,34.91,54.33,34.57,53.92,34.57z"/>
	<path class="st1" d="M68.87,2.6c-1.02-1.02-2.3-1.55-3.7-1.55c-1.81,0-3.66,0.89-5.34,2.57L29.8,33.65c0.01,0-0.02,0.05-0.05,0.1
		l-0.1,0.18l-3.28,10.44c-0.08,0.27-0.01,0.56,0.19,0.76c0.2,0.19,0.5,0.26,0.77,0.17l10.38-3.57c0.08-0.05,0.13-0.07,0.15-0.1
		l0.04-0.03l29.95-29.96c1.61-1.61,2.5-3.37,2.57-5.1C70.48,5.06,69.93,3.66,68.87,2.6z M28.25,43.41l2.48-7.87l5.24,5.24
		L28.25,43.41z M37.34,40.03l-5.9-5.9L60.36,5.21l5.9,5.9L37.34,40.03z M67.48,9.82l-0.17,0.22l-5.87-5.87L61.65,4
		c2.17-1.77,4.59-1.9,6.16-0.33C69.39,5.25,69.27,7.61,67.48,9.82z"/>
</g>
</svg>
