<?xml version="1.0" encoding="utf-8"?>
<!-- Generator: Adobe Illustrator 23.0.3, SVG Export Plug-In . SVG Version: 6.00 Build 0)  -->
<svg version="1.1" id="Layer_1" xmlns="http://www.w3.org/2000/svg" xmlns:xlink="http://www.w3.org/1999/xlink" x="0px" y="0px"
	 viewBox="0 0 88 62.5" style="enable-background:new 0 0 88 62.5;" xml:space="preserve">
<style type="text/css">
	.st0{fill:#6C6D70;}
	.st1{fill:#ED412D;}
</style>
<g transform="translate(0,-952.36218)">
	<path class="st0" d="M81.7,980.4c-0.9,0-1.8,0.2-2.8,0.7l0,0l-19.8,9.5c-0.4-2.2-2.4-3.9-4.8-3.8c0,0,0,0,0,0l-10.8,0.3
		c-2.8,0-4.9-0.7-7.4-1.4c-2.5-0.7-5.4-1.5-9.4-1.5c-3.6,0-8.9,1.3-12.8,2.7v-3.8c0-0.6-0.4-1-1-1H2.1c-0.6,0-1,0.4-1,1v8.2v21.6
		c0,0.6,0.4,1,1,1H13c0.6,0,1-0.4,1-1v-3.4c13.9-2.7,22,1.5,33.9,1.5c0,0,0,0,0,0c2,0,4.6-1.1,7.8-2.8c3.2-1.6,6.8-3.9,10.5-6.3
		c7.4-4.8,15-10.3,19-13c0,0,0,0,0,0c1.1-0.8,1.8-1.9,1.9-3.1c0.1-1.2-0.2-2.3-0.9-3.3C85.3,981.2,83.7,980.3,81.7,980.4L81.7,980.4
		z M82,982.3c1.2,0,2.1,0.6,2.6,1.4c0.4,0.6,0.6,1.3,0.5,2c-0.1,0.6-0.4,1.2-1,1.7c0,0,0,0,0,0c-4.1,2.7-11.6,8.2-19,12.9
		c-3.7,2.4-7.3,4.6-10.4,6.2c-3.1,1.6-5.7,2.5-6.9,2.5c0,0,0,0,0,0c-11.3,0-19.7-4.2-33.9-1.5v-2.9c0-0.6-0.4-1-1-1s-1,0.4-1,1
		c0,0,0,0,0,0v7.3H9v-27.7h3v7.3c0,0.6,0.4,1,1,1s1-0.4,1-1c0,0,0,0,0,0v-2.4c3.6-1.4,9.5-2.9,12.8-2.9c3.8,0,6.4,0.7,8.8,1.4
		c2.5,0.7,4.9,1.5,8,1.5c0,0,0,0,0,0l10.8-0.3c0,0,0,0,0,0c1.6,0,2.8,1.2,2.8,2.5c0,1.3-1.2,2.4-2.8,2.5c0,0,0,0,0,0l-20.5,0.9
		c-0.6,0-1,0.5-1,1c0,0.6,0.5,1,1,1c0,0,0,0,0,0l20.5-0.9l0,0c2-0.1,3.7-1.2,4.4-2.9c0,0,0.1,0,0.1,0l20.8-10l0,0
		C80.6,982.5,81.3,982.3,82,982.3L82,982.3z M3.1,984.2H7v27.7H3.1v-20.6V984.2L3.1,984.2z"/>
	<path class="st1" d="M49.5,965.8c-0.6,0-1,0.5-1,1v5.8h-5.8c-0.6,0-1,0.4-1,1c0,0.6,0.4,1,1,1c0,0,0,0,0,0h5.8v5.8c0,0.6,0.4,1,1,1
		s1-0.4,1-1c0,0,0,0,0,0v-5.8h5.8c0.6,0,1-0.4,1-1c0-0.6-0.4-1-1-1c0,0,0,0,0,0h-5.8v-5.8C50.5,966.2,50.1,965.8,49.5,965.8
		C49.5,965.8,49.5,965.8,49.5,965.8z"/>
	<path class="st1" d="M57.7,953.3c-0.6,0-1,0.5-1,1v2.9h-2.9c-0.6,0-1,0.4-1,1c0,0.6,0.4,1,1,1c0,0,0,0,0,0h2.9v2.9c0,0.6,0.4,1,1,1
		s1-0.4,1-1c0,0,0,0,0,0v-2.9h2.9c0.6,0,1-0.4,1-1c0-0.6-0.4-1-1-1c0,0,0,0,0,0h-2.9v-2.9C58.7,953.7,58.2,953.3,57.7,953.3
		C57.7,953.3,57.7,953.3,57.7,953.3z"/>
	<path class="st1" d="M41.3,953.3c-0.6,0-1,0.5-1,1v2.9h-2.9c-0.6,0-1,0.4-1,1c0,0.6,0.4,1,1,1c0,0,0,0,0,0h2.9v2.9c0,0.6,0.4,1,1,1
		c0.6,0,1-0.4,1-1c0,0,0,0,0,0v-2.9h2.9c0.6,0,1-0.4,1-1c0-0.6-0.4-1-1-1c0,0,0,0,0,0h-2.9v-2.9C42.3,953.7,41.9,953.3,41.3,953.3
		C41.3,953.3,41.3,953.3,41.3,953.3z"/>
</g>
</svg>
