<?xml version="1.0" encoding="utf-8"?>
<!-- Generator: Adobe Illustrator 23.0.3, SVG Export Plug-In . SVG Version: 6.00 Build 0)  -->
<svg version="1.1" id="Layer_1" xmlns="http://www.w3.org/2000/svg" xmlns:xlink="http://www.w3.org/1999/xlink" x="0px" y="0px"
	 viewBox="0 0 91.79 94.09" style="enable-background:new 0 0 91.79 94.09;" xml:space="preserve">
<style type="text/css">
	.st0{fill:#6C6D70;}
	.st1{enable-background:new    ;}
	.st2{fill:#ED412D;}
</style>
<g>
	<g>
		<path class="st0" d="M18.77,22.99c0.82,0.82,2.24,0.82,3.06,0c0.41-0.41,0.63-0.95,0.63-1.53s-0.23-1.12-0.63-1.53l-4.17-4.17
			c-0.82-0.82-2.24-0.82-3.06,0c-0.84,0.84-0.84,2.22,0,3.06L18.77,22.99z"/>
	</g>
	<g>
		<path class="st0" d="M71.48,70.48c-0.58,0-1.12,0.23-1.53,0.63c-0.41,0.41-0.63,0.95-0.63,1.53s0.23,1.12,0.63,1.53l4.17,4.17
			c0.81,0.82,2.24,0.82,3.06,0c0.41-0.41,0.63-0.95,0.63-1.53s-0.23-1.12-0.63-1.53l-4.17-4.17C72.6,70.7,72.06,70.48,71.48,70.48z"
			/>
	</g>
	<g>
		<path class="st0" d="M14.6,78.34c0.82,0.82,2.24,0.82,3.06,0l4.17-4.17c0.41-0.41,0.63-0.95,0.63-1.53s-0.23-1.12-0.63-1.53
			c-0.82-0.82-2.24-0.82-3.06,0l-4.17,4.17c-0.41,0.41-0.63,0.95-0.63,1.53S14.19,77.93,14.6,78.34L14.6,78.34z"/>
	</g>
	<g>
		<path class="st0" d="M75.65,15.13c-0.58,0-1.12,0.23-1.53,0.63l-4.17,4.17c-0.41,0.41-0.63,0.95-0.63,1.53s0.23,1.12,0.63,1.53
			c0.82,0.82,2.24,0.82,3.06,0l4.17-4.17c0.41-0.41,0.63-0.95,0.63-1.53s-0.23-1.12-0.63-1.53C76.78,15.35,76.23,15.13,75.65,15.13z
			"/>
	</g>
	<g>
		<path class="st0" d="M3.8,44.89c-1.19,0-2.16,0.97-2.16,2.16s0.97,2.16,2.16,2.16h5.9c1.19,0,2.16-0.97,2.16-2.16
			s-0.97-2.16-2.16-2.16H3.8z"/>
	</g>
	<g>
		<path class="st0" d="M82.08,44.89c-1.19,0-2.16,0.97-2.16,2.16s0.97,2.16,2.16,2.16h5.9c1.19,0,2.16-0.97,2.16-2.16
			s-0.97-2.16-2.16-2.16H82.08z"/>
	</g>
	<g>
		<path class="st0" d="M45.89,81.08c-1.19,0-2.16,0.97-2.16,2.16v5.9c0,1.19,0.97,2.16,2.16,2.16s2.16-0.97,2.16-2.16v-5.9
			C48.05,82.05,47.08,81.08,45.89,81.08z"/>
	</g>
	<g>
		<path class="st0" d="M45.89,2.8c-1.19,0-2.16,0.97-2.16,2.16v5.9c0,1.19,0.97,2.16,2.16,2.16s2.16-0.97,2.16-2.16v-5.9
			C48.05,3.77,47.08,2.8,45.89,2.8z"/>
	</g>
	<g>
		<path class="st0" d="M45.89,22.28c-13.66,0-24.77,11.11-24.77,24.77s11.11,24.77,24.77,24.77s24.77-11.11,24.77-24.77
			S59.55,22.28,45.89,22.28z M45.89,68.66c-11.92,0-21.61-9.7-21.61-21.61c0-11.92,9.7-21.61,21.61-21.61
			c11.92,0,21.61,9.7,21.61,21.61C67.5,58.97,57.81,68.66,45.89,68.66z"/>
	</g>
</g>
<g class="st1">
	<path class="st2" d="M39.67,35.52h14.29v0.03c-0.84,1.48-1.32,2.26-1.43,2.36h-3.82c0.52,0.7,0.88,1.55,1.07,2.55h4.07
		c0.05,0.01,0.07,0.03,0.07,0.07c-0.91,1.55-1.38,2.33-1.4,2.33H49.9c-0.06,0.8-0.4,1.76-1.01,2.89c-0.81,1.14-1.59,1.88-2.33,2.21
		c-1.39,0.75-2.71,1.13-3.98,1.13v0.03c0,0.11,0.31,0.58,0.94,1.4l7.06,9.68v0.46c0,0.04-0.03,0.07-0.07,0.07h-3.11
		c-5.59-7.4-8.38-11.11-8.38-11.15v-2.25l0.03-0.08c0.5,0.08,1.07,0.12,1.74,0.12c3.13,0,5.08-1.15,5.84-3.46
		c0.12-0.34,0.18-0.69,0.18-1.05h-8.5c-0.04,0-0.06-0.02-0.06-0.07c0.94-1.55,1.42-2.33,1.44-2.33h6.75v-0.03
		c-0.39-0.89-1.13-1.58-2.24-2.08c-0.79-0.29-1.51-0.44-2.14-0.44h-3.77v-0.08C39.17,36.3,39.65,35.52,39.67,35.52z"/>
</g>
</svg>
