<?xml version="1.0" encoding="utf-8"?>
<!-- Generator: Adobe Illustrator 23.0.3, SVG Export Plug-In . SVG Version: 6.00 Build 0)  -->
<svg version="1.1" id="Layer_1" xmlns="http://www.w3.org/2000/svg" xmlns:xlink="http://www.w3.org/1999/xlink" x="0px" y="0px"
	 viewBox="0 0 82.3 82" style="enable-background:new 0 0 82.3 82;" xml:space="preserve">
<style type="text/css">
	.st0{fill:#6C6D70;}
	.st1{fill:#ED412D;}
</style>
<g>
	<path class="st0" d="M42,9.2V2c0-0.6-0.4-1-1-1s-1,0.4-1,1v7.2c0,0.6,0.4,1,1,1S42,9.7,42,9.2z"/>
	<path class="st0" d="M15.8,17.2c0.2,0.2,0.5,0.3,0.7,0.3s0.5-0.1,0.7-0.3c0.4-0.4,0.4-1,0-1.4l-5.1-5.1c-0.4-0.4-1-0.4-1.4,0
		s-0.4,1,0,1.4L15.8,17.2z"/>
	<path class="st0" d="M2,42h7.2c0.6,0,1-0.4,1-1s-0.4-1-1-1H2c-0.6,0-1,0.4-1,1S1.4,42,2,42z"/>
	<path class="st0" d="M10.7,71.3c0.2,0.2,0.5,0.3,0.7,0.3s0.5-0.1,0.7-0.3l5.1-5.1c0.4-0.4,0.4-1,0-1.4s-1-0.4-1.4,0l-5.1,5.1
		C10.3,70.3,10.3,70.9,10.7,71.3z"/>
	<path class="st0" d="M40,72.8V80c0,0.6,0.4,1,1,1s1-0.4,1-1v-7.2c0-0.6-0.4-1-1-1S40,72.3,40,72.8z"/>
	<path class="st0" d="M69.9,71.3c0.2,0.2,0.5,0.3,0.7,0.3s0.5-0.1,0.7-0.3c0.4-0.4,0.4-1,0-1.4l-5.1-5.1c-0.4-0.4-1-0.4-1.4,0
		s-0.4,1,0,1.4L69.9,71.3z"/>
	<path class="st0" d="M80,40h-7.2c-0.6,0-1,0.4-1,1s0.4,1,1,1H80c0.6,0,1-0.4,1-1S80.6,40,80,40z"/>
	<path class="st0" d="M71.3,10.7c-0.4-0.4-1-0.4-1.4,0l-5.1,5.1c-0.4,0.4-0.4,1,0,1.4c0.2,0.2,0.5,0.3,0.7,0.3s0.5-0.1,0.7-0.3
		l5.1-5.1C71.7,11.7,71.7,11.1,71.3,10.7z"/>
	<path class="st1" d="M40.8,33.2c-4.3,0-7.9,3.5-7.9,7.9s3.5,7.9,7.9,7.9s7.9-3.5,7.9-7.9S45.2,33.2,40.8,33.2z M40.8,46.9
		c-3.2,0-5.9-2.6-5.9-5.9s2.6-5.9,5.9-5.9s5.9,2.6,5.9,5.9S44,46.9,40.8,46.9z"/>
	<path class="st1" d="M65.6,41.7c0.3-0.4,0.3-0.9,0-1.2c-0.5-0.6-11.2-13.9-24.8-13.9c0,0,0,0,0,0c0,0,0,0,0,0c0,0,0,0-0.1,0
		c-13.5,0.1-24.2,13.3-24.6,13.9c-0.3,0.4-0.3,0.9,0,1.2c0.4,0.5,9.6,11.9,21.7,13.6c1,0.2,2,0.3,3,0.3c0.9,0,1.8-0.1,2.6-0.2
		C55.8,53.9,65.2,42.2,65.6,41.7z M40.8,53.5c-0.9,0-1.8-0.1-2.7-0.2c-5.6-1.2-9.9-6.2-9.9-12.2c0-6.9,5.6-12.5,12.5-12.5
		c0,0,0,0,0.1,0c6.9,0,12.5,5.6,12.5,12.5c0,6-4.3,11.1-10,12.3C42.5,53.5,41.7,53.5,40.8,53.5z M63.5,41c-1.5,1.7-5.8,6.3-11.6,9.4
		c2.1-2.5,3.4-5.8,3.4-9.3c0-3.6-1.4-7-3.6-9.5C57.6,34.7,62,39.4,63.5,41z M18.2,41c1.5-1.7,5.8-6.3,11.6-9.4
		c-2.2,2.5-3.5,5.8-3.5,9.4c0,3.5,1.3,6.7,3.3,9.2C23.9,47.2,19.6,42.7,18.2,41z"/>
</g>
</svg>
